<svg xmlns="http://www.w3.org/2000/svg" viewBox="0 0 284 32"><path d="M38.713 9.496h2.626v4.317h.04c.294-.389.683-.697 1.128-.895a6.5 6.5 0 0 1 1.478-.428c.117 0 .272-.04.4-.04h.35c1.475-.045 2.902.534 3.928 1.595.972.968 1.518 2.284 1.517 3.656.006.208-.007.416-.04.622a4.07 4.07 0 0 1-.156.661c-.114.429-.271.846-.467 1.245-.191.386-.44.741-.74 1.05-.488.544-1.102.958-1.789 1.206a6.04 6.04 0 0 1-2.178.428 5.13 5.13 0 0 1-2.062-.39c-.634-.263-1.186-.694-1.595-1.245h-.04V22.6h-2.4V9.496zm3.443 6.107c-.627.48-.988 1.232-.972 2.023-.012.818.3 1.605.895 2.178.638.606 1.494.928 2.373.894a3.02 3.02 0 0 0 2.256-.856 2.73 2.73 0 0 0 .856-2.1c.018-.788-.292-1.55-.856-2.1a3.02 3.02 0 0 0-2.256-.856c-.84-.015-1.654.275-2.295.817h-.001zm20.498 7.08h-2.413v-1.322h-.04c-.337.45-.777.8-1.284 1.05a5.28 5.28 0 0 1-1.672.545c-.117 0-.234.04-.35.04h-.35a5.83 5.83 0 0 1-2.256-.428 4.88 4.88 0 0 1-1.712-1.206 5.02 5.02 0 0 1-1.011-1.634c-.232-.622-.35-1.281-.35-1.945a5.94 5.94 0 0 1 .311-1.906c.247-.604.603-1.158 1.05-1.633.508-.557 1.132-.995 1.828-1.284a5.77 5.77 0 0 1 2.217-.428 5.15 5.15 0 0 1 2.062.428c.636.278 1.187.722 1.595 1.284v-1.4h2.412v9.84l-.037-.001zm-2.45-4.98a2.7 2.7 0 0 0-.856-2.062c-.595-.6-1.42-.9-2.256-.817-.972 0-1.75.272-2.333.856a2.85 2.85 0 0 0-.895 2.178c-.013.78.33 1.526.934 2.023.626.54 1.43.832 2.256.817a3.11 3.11 0 0 0 2.295-.856 2.97 2.97 0 0 0 .856-2.14l-.001.001zm4.395-8.207h2.606v13.186h-2.606V9.496zm7 9.296c.186.581.572 1.077 1.089 1.4a3.2 3.2 0 0 0 1.79.506c.477.005.951-.074 1.4-.233.385-.118.733-.332 1-.622h2.878c-.3.895-.972 1.634-1.984 2.256a5.99 5.99 0 0 1-3.228.934c-1.493.033-2.942-.511-4.045-1.517-1.076-.906-1.69-2.249-1.672-3.656a4.94 4.94 0 0 1 1.672-3.773 5.76 5.76 0 0 1 4.084-1.556 5.49 5.49 0 0 1 3.967 1.556c1.089 1.05 1.634 2.256 1.634 3.617.006.157-.007.314-.04.467-.04.155-.04.3-.078.428 0 .04-.04.078-.04.117v.117h-8.44l.013-.041zm5.95-2.1c-.192-.58-.595-1.065-1.128-1.362-.547-.342-1.183-.518-1.828-.505h-.156a4.01 4.01 0 0 0-1.75.545 2.48 2.48 0 0 0-1.1 1.322h5.962zm4.282-3.9h2.447v.894h.04a3.26 3.26 0 0 1 1.167-.856c.498-.194 1.023-.312 1.556-.35h.544a4.36 4.36 0 0 1 1.517.389c.478.202.914.492 1.284.856.04.04.117.078.155.117.048.044.088.097.117.155a3.35 3.35 0 0 1 .739 1.712c.079.619.118 1.243.117 1.867v5.095h-2.606v-5.135a2.25 2.25 0 0 0-.039-.505 4.13 4.13 0 0 0-.155-.739c-.064-.237-.17-.46-.3-.66a1.77 1.77 0 0 0-.7-.583c-.275-.149-.581-.229-.894-.233h-.4c-.312.036-.615.129-.895.272a1.9 1.9 0 0 0-.66.583c-.127.209-.231.43-.311.661-.077.252-.116.514-.117.778v5.562h-2.606v-9.88zm22.789 9.88h-2.412V21.35h-.04c-.337.45-.777.8-1.284 1.05a5.28 5.28 0 0 1-1.672.545c-.117 0-.233.04-.35.04h-.35a5.83 5.83 0 0 1-2.256-.428 4.87 4.87 0 0 1-1.711-1.206 5.02 5.02 0 0 1-1.011-1.634c-.232-.622-.35-1.281-.35-1.945a5.94 5.94 0 0 1 .311-1.906c.247-.604.603-1.158 1.05-1.633.508-.557 1.132-.995 1.828-1.284a5.77 5.77 0 0 1 2.217-.428 5.15 5.15 0 0 1 2.062.428c.636.278 1.187.722 1.595 1.284v-1.4h2.414v9.84l-.041-.001zm-2.5-4.98a2.7 2.7 0 0 0-.856-2.062c-.595-.6-1.42-.9-2.256-.817-.972 0-1.75.272-2.333.856a2.85 2.85 0 0 0-.895 2.178c-.013.78.33 1.526.934 2.023.626.54 1.43.832 2.256.817a3.11 3.11 0 0 0 2.295-.856c.577-.558.9-1.337.856-2.14l-.001.001z" fill="#2a506f"/><path d="M15.826 0A15.83 15.83 0 0 0 0 15.826a15.83 15.83 0 0 0 15.826 15.826 15.83 15.83 0 0 0 15.826-15.826A15.83 15.83 0 0 0 15.826 0zm9.994 25.82a14.09 14.09 0 0 1-4.493 3.03c-1.741.737-3.592 1.11-5.501 1.11s-3.76-.373-5.501-1.11a14.09 14.09 0 0 1-4.493-3.03 14.09 14.09 0 0 1-3.03-4.493c-.737-1.741-1.11-3.592-1.11-5.501s.373-3.76 1.11-5.501a14.09 14.09 0 0 1 3.03-4.493 14.09 14.09 0 0 1 4.493-3.03c1.741-.737 3.592-1.11 5.501-1.11s3.76.373 5.501 1.11a14.09 14.09 0 0 1 4.493 3.03 14.09 14.09 0 0 1 3.03 4.493c.737 1.741 1.11 3.592 1.11 5.501s-.373 3.76-1.11 5.501a14.09 14.09 0 0 1-3.03 4.493z" fill="#dfaf37"/><path d="M25.262 19.441l.696-3.242c.039-.222-.228-.372-.39-.215l-1.681 2.101-1.691-1.483c-.032-.029-.048-.072-.043-.115l.103-.836c.008-.069-.076-.124-.123-.076l-.412.61c-.072.106-.163.197-.27.268l-.605.401c-.049.048.003.135.072.127l.848-.098c.043-.005.085.011.114.043l1.469 1.723-2.111 1.639c-.161.165-.015.435.207.398l3.259-.678 1.066 1.107c.177.178.442.205.621.028s.153-.442-.024-.621l-1.104-1.08zm-6.798 3.794l.461-1.373c.072-.226-.021-.459-.247-.531s-.437.065-.509.291l-.422 1.394-3.014.831c-.203.065-.212.352-.01.42l2.489.49-.503 2.061c-.01.039-.039.071-.077.086l-.744.278c-.062.023-.07.117-.01.136l.69.079a.92.92 0 0 1 .342.109l.599.331c.062.02.111-.061.074-.116l-.451-.667c-.023-.034-.028-.076-.014-.114l.801-1.979 2.29 1.051c.208.063.37-.177.242-.347l-1.987-2.43zM8.65 16.662l-2.592-.111.19-2.16c.004-.041.029-.078.065-.098l.709-.396c.059-.033.053-.129-.011-.139l-.64.024c.941-4.355 4.822-7.628 9.455-7.628 2.467 0 4.856.957 6.643 2.643l-3.025 2.761a5.59 5.59 0 0 0-3.618-1.327c-3.085 0-5.596 2.51-5.596 5.595s2.51 5.596 5.596 5.596a.321.321 0 1 0 0-.642 4.96 4.96 0 0 1-4.954-4.954 4.96 4.96 0 0 1 4.954-4.954 4.95 4.95 0 0 1 3.139 1.122l-2.543 2.321a1.62 1.62 0 0 0-.596-.113c-.897 0-1.623.727-1.623 1.623s.727 1.623 1.623 1.623 1.623-.727 1.623-1.623a1.62 1.62 0 0 0-.124-.624l7.206-6.577c.257-.234.275-.636.041-.893s-.636-.275-.893-.041l-.734.67a10.36 10.36 0 0 0-7.118-2.851c-4.943 0-9.083 3.495-10.084 8.143l-.459-.169c-.065-.01-.103.079-.057.129l.559.604c.028.031.04.073.031.114l-.504 2.124-2.477-.709c-.22-.031-.347.236-.191.388l2.384 2.149-.254 1.459c-.038.24.092.461.332.499s.431-.133.469-.372l.211-1.474 2.918-1.305c.195-.097.159-.389-.055-.426zm-1.729 3.28l-.172 1.043c1.715 2.93 4.834 4.951 8.448 5.111l.204-.635c-3.753-.099-6.962-2.337-8.48-5.519z" fill="#2a506f"/><path d="M33.13 51.361l-.501-1.318h-4.268l-.501 1.346q-.294.788-.501 1.067-.208.272-.68.272-.401 0-.709-.294-.308-.294-.308-.666 0-.215.072-.444.072-.229.236-.637l2.686-6.818q.115-.294.272-.702.165-.415.344-.688.186-.272.48-.437.301-.172.738-.172.444 0 .738.172.301.165.48.43.186.265.308.573.129.301.322.809l2.743 6.775q.322.773.322 1.124 0 .365-.308.673-.301.301-.73.301-.251 0-.43-.093-.179-.086-.301-.236-.122-.158-.265-.473-.136-.322-.236-.566zm-4.211-2.915h3.137l-1.583-4.333zm9.36-6.395h2.772q1.081 0 1.855.201.773.201 1.404.752 1.64 1.404 1.64 4.268 0 .945-.165 1.726-.165.781-.508 1.411-.344.623-.881 1.117-.423.38-.924.609-.501.229-1.081.322-.573.093-1.296.093h-2.772q-.58 0-.874-.172-.294-.179-.387-.494-.086-.322-.086-.831v-7.699q0-.688.308-.995.308-.308.995-.308zm.824 1.683v7.126h1.611q.53 0 .831-.029.301-.029.623-.143.322-.115.559-.322 1.067-.902 1.067-3.108 0-1.554-.473-2.328-.466-.773-1.153-.981-.688-.215-1.661-.215zm16.694 5.665q0 .952-.494 1.712-.487.759-1.432 1.189-.945.43-2.242.43-1.554 0-2.564-.587-.716-.423-1.167-1.124-.444-.709-.444-1.375 0-.387.265-.659.272-.279.688-.279.337 0 .566.215.236.215.401.637.201.501.43.838.236.337.659.559.423.215 1.11.215.945 0 1.533-.437.594-.444.594-1.103 0-.523-.322-.845-.315-.329-.824-.501-.501-.172-1.346-.365-1.132-.265-1.898-.616-.759-.358-1.21-.967-.444-.616-.444-1.525 0-.867.473-1.54.473-.673 1.368-1.031.895-.365 2.106-.365.967 0 1.669.243.709.236 1.175.637.466.394.68.831.215.437.215.852 0 .38-.272.688-.265.301-.666.301-.365 0-.559-.179-.186-.186-.408-.602-.286-.594-.688-.924-.401-.337-1.289-.337-.824 0-1.332.365-.501.358-.501.867 0 .315.172.544.172.229.473.394.301.165.609.258.308.093 1.017.272.888.208 1.604.458.723.251 1.225.609.508.358.788.91.286.544.286 1.339zm4.24.201h-2.263q-.516 0-.788-.236-.265-.243-.265-.623 0-.387.258-.623.265-.243.795-.243h2.263q.53 0 .788.243.265.236.265.623 0 .38-.258.623-.258.236-.795.236zm6.932 2.951h-3.208q-.695 0-.995-.308-.294-.315-.294-.995v-7.892q0-.695.301-.995.308-.308.988-.308h3.402q.752 0 1.303.093.551.093.988.358.372.222.659.566.286.337.437.752.15.408.15.867 0 1.576-1.576 2.306 2.07.659 2.07 2.564 0 .881-.451 1.59-.451.702-1.217 1.038-.48.201-1.103.286-.623.079-1.454.079zm-.158-4.662h-2.213v3.065h2.285q2.156 0 2.156-1.554 0-.795-.559-1.153-.559-.358-1.669-.358zm-2.213-4.24v2.714h1.948q.795 0 1.225-.15.437-.15.666-.573.179-.301.179-.673 0-.795-.566-1.053-.566-.265-1.726-.265zm18.377.043h-4.19v2.686h3.502q.487 0 .723.222.243.215.243.58 0 .365-.243.58-.243.215-.723.215h-3.502v3.459q0 .659-.301.981-.294.315-.759.315-.473 0-.773-.322-.294-.322-.294-.974v-8.078q0-.458.136-.745.136-.294.423-.423.294-.136.745-.136h5.013q.508 0 .752.229.251.222.251.587 0 .372-.251.602-.243.222-.752.222zm2.255 7.848v-8.479q0-.587.258-.888.265-.301.709-.301.444 0 .716.301.272.294.272.888v8.479q0 .594-.279.895-.272.294-.709.294-.43 0-.702-.308-.265-.308-.265-.881zm5.93-5.651v5.651q0 .587-.279.888-.279.301-.709.301-.43 0-.702-.308-.265-.308-.265-.881v-5.593q0-.58.265-.874.272-.294.702-.294.43 0 .709.294.279.294.279.816zm-.967-2.02q-.408 0-.702-.251-.286-.251-.286-.709 0-.415.294-.68.301-.272.695-.272.38 0 .673.243.294.243.294.709 0 .451-.286.709-.286.251-.68.251zm10.177 2.342v5.679q0 .974-.208 1.676-.208.702-.666 1.16-.458.458-1.203.68-.738.222-1.841.222-1.01 0-1.805-.286-.795-.279-1.225-.73-.43-.444-.43-.917 0-.358.243-.587.243-.222.587-.222.43 0 .752.38.158.193.322.387.172.201.372.337.208.143.494.208.286.072.659.072.759 0 1.175-.215.423-.208.587-.587.172-.38.201-.816.029-.43.043-1.389-.451.63-1.046.96-.587.329-1.404.329-.981 0-1.719-.501-.73-.501-1.124-1.404-.394-.902-.394-2.084 0-.881.236-1.59.243-.709.688-1.196.444-.487 1.024-.73.58-.251 1.275-.251.831 0 1.439.322.609.315 1.132.995v-.265q0-.508.251-.788.251-.279.645-.279.566 0 .752.372.186.365.186 1.06zm-5.665 2.478q0 1.189.516 1.798.523.609 1.346.609.487 0 .917-.258.437-.265.709-.788.272-.53.272-1.282 0-1.196-.53-1.862-.523-.666-1.382-.666-.838 0-1.346.637-.501.637-.501 1.812zm9.554-5.629v2.9q.372-.43.723-.68.358-.251.788-.372.43-.129.924-.129.745 0 1.318.315.58.315.91.917.208.351.279.788.072.43.072.995v3.746q0 .587-.272.888-.265.301-.709.301-.967 0-.967-1.189v-3.302q0-.938-.279-1.439-.279-.508-1.06-.508-.523 0-.945.301-.415.294-.623.809-.158.437-.158 1.554v2.585q0 .58-.265.888-.258.301-.723.301-.967 0-.967-1.189v-8.479q0-.594.251-.888.258-.301.716-.301.466 0 .723.301.265.301.265.888zm7.054 1.891h.215v-1.175q0-.473.021-.738.029-.272.143-.466.115-.201.329-.322.215-.129.48-.129.372 0 .673.279.201.186.251.458.057.265.057.759v1.332h.716q.415 0 .63.201.222.193.222.501 0 .394-.315.551-.308.158-.888.158h-.365v3.595q0 .458.029.709.036.243.172.401.143.15.458.15.172 0 .466-.057.294-.064.458-.064.236 0 .423.193.193.186.193.466 0 .473-.516.723-.516.251-1.482.251-.917 0-1.389-.308-.473-.308-.623-.852-.143-.544-.143-1.454V46.36h-.258q-.423 0-.645-.201-.222-.201-.222-.508 0-.308.229-.501.236-.201.68-.201zm15.705-1.146h-2.32v7.627q0 .659-.294.981-.294.315-.759.315-.473 0-.773-.322-.294-.322-.294-.974v-7.627h-2.32q-.544 0-.809-.236-.265-.243-.265-.637 0-.408.272-.645.279-.236.802-.236h6.761q.551 0 .816.243.272.243.272.637 0 .394-.272.637-.272.236-.816.236zm3.595 6.102v1.633q0 .594-.279.895-.279.294-.709.294-.423 0-.695-.301-.272-.301-.272-.888v-5.443q0-1.318.952-1.318.487 0 .702.308.215.308.236.91.351-.602.716-.91.372-.308.988-.308.616 0 1.196.308.58.308.58.816 0 .358-.251.594-.243.229-.53.229-.107 0-.523-.129-.408-.136-.723-.136-.43 0-.702.229-.272.222-.423.666-.15.444-.208 1.06-.057.609-.057 1.49zm9.059 1.719q-.709.551-1.375.831-.659.272-1.482.272-.752 0-1.325-.294-.566-.301-.874-.809-.308-.508-.308-1.103 0-.802.508-1.368.508-.566 1.397-.759.186-.043.924-.193.738-.15 1.26-.272.53-.129 1.146-.308-.036-.773-.315-1.132-.272-.365-1.139-.365-.745 0-1.124.208-.372.208-.645.623-.265.415-.38.551-.107.129-.473.129-.329 0-.573-.208-.236-.215-.236-.544 0-.516.365-1.003.365-.487 1.139-.802.773-.315 1.926-.315 1.289 0 2.027.308.738.301 1.038.96.308.659.308 1.747 0 .688-.007 1.167 0 .48-.007 1.067 0 .551.179 1.153.186.594.186.766 0 .301-.286.551-.279.243-.637.243-.301 0-.594-.279-.294-.286-.623-.824zm-.129-2.829q-.43.158-1.253.337-.816.172-1.132.258-.315.079-.602.322-.286.236-.286.666 0 .444.337.759.337.308.881.308.58 0 1.067-.251.494-.258.723-.659.265-.444.265-1.461zm10.914 1.511q0 .365-.222.781-.215.415-.666.795-.444.372-1.124.602-.68.229-1.533.229-1.812 0-2.829-1.053-1.017-1.06-1.017-2.836 0-1.203.466-2.127.466-.924 1.346-1.425.881-.508 2.106-.508.759 0 1.389.222.637.222 1.074.573.444.351.673.752.236.394.236.738 0 .351-.265.594-.258.243-.63.243-.243 0-.408-.122-.158-.129-.358-.408-.358-.544-.752-.816-.387-.272-.988-.272-.867 0-1.397.68-.53.673-.53 1.848 0 .551.136 1.017.136.458.394.788.258.322.623.494.365.165.802.165.587 0 1.003-.272.423-.272.745-.831.179-.329.387-.516.208-.186.508-.186.358 0 .594.272.236.272.236.58zm6.017 1.525l-1.726-2.836-1.06 1.003v1.554q0 .566-.301.874-.294.301-.68.301-.451 0-.709-.301-.258-.301-.258-.888v-8.336q0-.652.251-.988.251-.344.716-.344.451 0 .716.308.265.308.265.91v4.741l2.199-2.306q.408-.43.623-.587.215-.158.523-.158.365 0 .609.236.243.229.243.58 0 .43-.795 1.146l-1.038.952 2.005 3.151q.222.351.315.537.1.179.1.344 0 .466-.258.738-.251.265-.666.265-.358 0-.551-.193-.193-.193-.523-.702zm8.436-2.6h-3.824q.007.666.265 1.175.265.508.695.766.437.258.96.258.351 0 .637-.079.294-.086.566-.258.272-.179.501-.38.229-.201.594-.544.15-.129.43-.129.301 0 .487.165.186.165.186.466 0 .265-.208.623-.208.351-.63.68-.415.322-1.053.537-.63.215-1.454.215-1.884 0-2.929-1.074-1.046-1.074-1.046-2.915 0-.867.258-1.604.258-.745.752-1.275.494-.53 1.217-.809.723-.286 1.604-.286 1.146 0 1.962.487.824.48 1.232 1.246.408.766.408 1.561 0 .738-.423.96-.423.215-1.189.215zm-3.824-1.11h3.545q-.072-1.003-.544-1.497-.466-.501-1.232-.501-.73 0-1.203.508-.466.501-.566 1.49zm9.023 1.783v1.633q0 .594-.279.895-.279.294-.709.294-.423 0-.695-.301-.272-.301-.272-.888v-5.443q0-1.318.952-1.318.487 0 .702.308.215.308.236.91.351-.602.716-.91.372-.308.988-.308.616 0 1.196.308.58.308.58.816 0 .358-.251.594-.243.229-.53.229-.107 0-.523-.129-.408-.136-.723-.136-.43 0-.702.229-.272.222-.423.666-.15.444-.208 1.06-.057.609-.057 1.49z" transform="matrix(1.17269 0 0 1.17269 80.2179 -39.0391)" fill="#dfaf37"/></svg>