<svg xmlns="http://www.w3.org/2000/svg" xml:space="preserve" fill-rule="evenodd" stroke-linejoin="round" stroke-miterlimit="2" clip-rule="evenodd" viewBox="0 0 284 32"><path fill="#2a506f" fill-rule="nonzero" d="M38.71307 9.4958h2.626v4.317h.04c.294-.389.683-.697 1.128-.895.474-.201.97-.344 1.478-.428.117 0 .272-.04.4-.04h.35c1.475-.045 2.902.534 3.928 1.595.972.968 1.518 2.284 1.517 3.656.006.208-.007.416-.04.622-.033.224-.086.445-.156.661-.114.429-.271.846-.467 1.245-.191.386-.44.741-.74 1.05-.488.544-1.102.958-1.789 1.206-.693.276-1.432.421-2.178.428-.707.013-1.409-.119-2.062-.39-.634-.263-1.186-.694-1.595-1.245h-.04v1.322h-2.4V9.4958Zm3.443 6.107c-.627.48-.988 1.232-.972 2.023-.012.818.3 1.605.895 2.178.638.606 1.494.928 2.373.894.838.041 1.656-.27 2.256-.856.576-.542.889-1.309.856-2.1.018-.788-.292-1.55-.856-2.1-.6-.586-1.418-.897-2.256-.856-.84-.015-1.654.275-2.295.817h-.001Zm20.498 7.08h-2.413v-1.322h-.04c-.337.45-.777.8-1.284 1.05-.523.274-1.088.458-1.672.545-.117 0-.234.04-.35.04h-.35c-.773.008-1.54-.137-2.256-.428-.651-.273-1.235-.685-1.712-1.206-.439-.474-.782-1.029-1.011-1.634-.232-.622-.35-1.281-.35-1.945-.001-.648.104-1.292.311-1.906.247-.604.603-1.158 1.05-1.633.508-.557 1.132-.995 1.828-1.284.704-.287 1.457-.433 2.217-.428.709-.001 1.412.145 2.062.428.636.278 1.187.722 1.595 1.284v-1.4h2.412v9.84l-.037-.001Zm-2.45-4.98c.026-.778-.287-1.531-.856-2.062-.595-.6-1.42-.9-2.256-.817-.972 0-1.75.272-2.333.856-.598.563-.925 1.357-.895 2.178-.013.78.33 1.526.934 2.023.626.54 1.43.832 2.256.817.85.041 1.68-.269 2.295-.856.562-.569.87-1.341.856-2.14l-.001.001Zm4.395-8.207h2.606v13.186h-2.606V9.4958Zm7 9.296c.186.581.572 1.077 1.089 1.4.533.342 1.156.518 1.79.506.477.005.951-.074 1.4-.233.385-.118.733-.332 1-.622h2.878c-.3.895-.972 1.634-1.984 2.256-.965.613-2.085.937-3.228.934-1.493.033-2.942-.511-4.045-1.517-1.076-.906-1.69-2.249-1.672-3.656-.02-1.441.591-2.82 1.672-3.773 1.104-1.035 2.572-1.594 4.084-1.556 1.477-.037 2.909.525 3.967 1.556 1.089 1.05 1.634 2.256 1.634 3.617.006.157-.007.314-.04.467-.04.155-.04.3-.078.428 0 .04-.04.078-.04.117v.117h-8.44l.013-.041Zm5.95-2.1c-.192-.58-.595-1.065-1.128-1.362-.547-.342-1.183-.518-1.828-.505h-.156c-.618.044-1.217.231-1.75.545-.512.295-.903.764-1.1 1.322h5.962Zm4.282-3.9h2.447v.894h.04c.32-.369.719-.662 1.167-.856.498-.194 1.023-.312 1.556-.35h.544c.525.037 1.039.169 1.517.389.478.202.914.492 1.284.856.04.04.117.078.155.117.048.044.088.097.117.155.403.489.66 1.083.739 1.712.079.619.118 1.243.117 1.867v5.095h-2.606v-5.135c.006-.169-.007-.339-.039-.505-.029-.251-.081-.498-.155-.739-.064-.237-.17-.46-.3-.66-.178-.252-.42-.453-.7-.583-.275-.149-.581-.229-.894-.233h-.4c-.312.036-.615.129-.895.272-.263.14-.489.34-.66.583-.127.209-.231.43-.311.661-.077.252-.116.514-.117.778v5.562h-2.606v-9.88Zm22.789 9.88h-2.412v-1.322h-.04c-.337.45-.777.8-1.284 1.05-.523.274-1.088.458-1.672.545-.117 0-.233.04-.35.04h-.35c-.773.008-1.54-.137-2.256-.428-.651-.273-1.235-.685-1.711-1.206-.439-.474-.782-1.029-1.011-1.634-.232-.622-.35-1.281-.35-1.945-.001-.648.104-1.292.311-1.906.247-.604.603-1.158 1.05-1.633.508-.557 1.132-.995 1.828-1.284.704-.287 1.457-.433 2.217-.428.709-.001 1.412.145 2.062.428.636.278 1.187.722 1.595 1.284v-1.4h2.414v9.84l-.041-.001Zm-2.5-4.98c.026-.778-.287-1.531-.856-2.062-.595-.6-1.42-.9-2.256-.817-.972 0-1.75.272-2.333.856-.598.563-.925 1.357-.895 2.178-.013.78.33 1.526.934 2.023.626.54 1.43.832 2.256.817.85.041 1.68-.269 2.295-.856.577-.558.9-1.337.856-2.14l-.001.001Z"/><path fill="#dfaf37" fill-rule="nonzero" d="M15.8263824-1e-7C7.08569043-1e-7-2.8e-7 7.0857548-2.8e-7 15.82638255c0 8.74069195 7.0857549 15.82638267 15.82638266 15.82638267 8.74069196 0 15.82644687-7.08569072 15.82644687-15.82638267 0-8.74062776-7.08569072-15.82638267-15.82644687-15.82638267Zm9.99407613 25.820523c-1.29857894 1.29857893-2.81022805 2.31783629-4.49309083 3.02965373-1.74134634.73653333-3.59221293 1.11003206-5.5009853 1.11003206-1.90877238 0-3.75957477-.37349873-5.50092111-1.11003206-1.68286278-.71181744-3.1945761-1.731139-4.49315503-3.02965374-1.29857894-1.29864313-2.3179005-2.81022805-3.02965374-4.49309083-.73653333-1.74141054-1.11003206-3.59221293-1.11003206-5.5009853 0-1.90877238.37343453-3.75957477 1.11003206-5.5009211.71175325-1.68286279 1.731139-3.1945761 3.02965374-4.49309084 1.29857894-1.29857894 2.81029225-2.3179005 4.49315503-3.02965374 1.74134634-.73659753 3.59221293-1.11003206 5.5009211-1.11003206 1.90877238 0 3.75957477.37343453 5.5009853 1.11003206 1.68286279.71175325 3.1945761 1.731139 4.49309084 3.02965374 1.29857894 1.29857894 2.31790049 2.81022805 3.02971794 4.49309083.73653332 1.74134634 1.11003205 3.59214873 1.11003205 5.5009211 0 1.90877238-.37343453 3.75957477-1.11003205 5.5009853-.71175325 1.68286279-1.731139 3.1944477-3.02971794 4.49309084Z"/><path fill="#2a506f" fill-rule="nonzero" d="m25.26162277 19.44087188.69570397-3.24195355c.03858246-.22231456-.2278355-.3717012-.39038256-.21531707-.00121975.00121974-.00577774.00571354-.00699748.00686909l-1.67393939 2.0941736-1.69146519-1.48276042c-.03197015-.02914549-.04782684-.07190075-.04256267-.11484861l.10297214-.83623143c.00828143-.06926867-.07555998-.12357942-.12313003-.07626615l-.00205431.0020543-.41009108.60839592c-.07157976.106182-.16331742.19727769-.270013.2680229l-.60492927.40129607c-.00038518.00032098-.00070617.00070616-.00109135.00109135-.04757005.04724906.00410861.13352996.07350568.12563372l.84842887-.09777218c.04281947-.00487898.08544634.0111703.11427084.04326884l1.46857286 1.72279338-2.11080065 1.63875937c-.00121974.00128394-.0023753.0023753-.00353084.00365923-.15741129.1617125-.01174807.43108353.21075908.39384921l3.25877319-.67837075 1.06554346 1.1066938c.1773124.17827535.44218963.20510974.62059337.02786155.17833954-.1773766.15304589-.44244642-.0242665-.62078596l-1.10386914-1.0801162Zm-6.79712475 3.79411281.46125616-1.37336856c.07190076-.2259738-.02112084-.45913766-.24709463-.53103841-.226038-.07183656-.43660448.06477487-.50850523.29068447l-.42222433 1.39378323-3.01431063.83064628c-.20267025.06464648-.21159364.35244208-.00995055.42029841.00147653.00051358.00731847.0023753.008795.00288887l2.48070434.48744858-.50304848 2.06059852c-.01046412.03941702-.03928862.07125878-.0774859.08557473l-.74423698.27829443c-.06156502.02323935-.07042422.11703132-.01014314.13622625.00044938.0001284.0021827.00064197.00263208.00083456l.68742255.07787108c.11998438.01360979.23611693.05065152.34178536.10900668l.59915153.33106444c.00044938.0001284.00089876.00032099.00134814.00044938.06021688.01919494.10984124-.0616934.0730563-.11626094l-.451434-.66694368c-.02278998-.03363928-.02792574-.07626615-.01367399-.11439923l.80092302-1.97874721 2.29023154 1.05122751c.00147654.00044938.00301727.00089876.0044938.00134814.2037616.06117984.36566668-.17801856.23752927-.34788408l-1.98722123-2.42960345ZM8.65036636 16.6623572c-.00160493-.0002568-.00776785-.00128395-.00937278-.00147654l-2.58245674-.10945605.19008761-2.16029661c.0044296-.04147133.0286961-.07812788.06503167-.09847836l.70918536-.3962245c.05861195-.0330615.053091-.12916456-.01078511-.1392435-.00044938-.0000642-.0023111-.00038519-.00276048-.00044939l-.6376056.02484428c.9409369-4.35487447 4.82242196-7.6281562 9.4546921-7.6281562 2.46747974 0 4.85554766.95698616 6.64279493 2.6430588l-3.02515995 2.76150245c-1.00397844-.85138194-2.28188592-1.32695406-3.61769917-1.32695406-3.08537683 0-5.59554763 2.5101708-5.59554763 5.59548343 0 3.08544102 2.5101708 5.59554763 5.59554763 5.59554763.17724819 0 .3209855-.1436731.3209855-.3209855 0-.17731239-.14373731-.3209855-.3209855-.3209855-2.73139402 0-4.95357663-2.22218261-4.95357663-4.95357663 0-2.731394 2.22218261-4.95351243 4.95357663-4.95351243 1.15445645 0 2.2600589.40155286 3.1389814 1.12197272l-2.54316812 2.32149553c-.18450246-.07286371-.38537519-.11337208-.59581328-.11337208-.8965767 0-1.62341627.72683957-1.62341627 1.62341626 0 .8966409.72683957 1.62341627 1.62341627 1.62341627.8966409 0 1.62348046-.72677537 1.62348046-1.62341627 0-.22096641-.044296-.4315971-.12434978-.62361063l7.2055467-6.57750647c.2567242-.23425521.27502037-.63600067.04070096-.89266067-.23425522-.25666-.63600067-.27495618-.89266068-.04070096l-.73435062.67034611c-1.90954274-1.81819026-4.47107123-2.850929-7.11830285-2.850929-4.94259892 0-9.08337607 3.49469752-10.08375948 8.14256756l-.45907346-.16922355c-.00044938-.0000642-.00096296-.0001284-.00141234-.0001926-.06387611-.01007894-.10149561.07921923-.05591567.1287152l.55928513.6042873c.02824673.03062201.0399306.0728637.03145658.11362886l-.50375464 2.12364007-2.4770451-.70880018c-.00160493-.00025679-.00320986-.00051358-.00481479-.00070617-.21538127-.03036523-.34210634.23643792-.18636418.38826406l2.38383092 2.14874113-.25409213 1.4591359c-.03774789.23951937.09231543.46087097.33177062.49861887.23945518.0377479.43127612-.1328238.4690882-.37240738l.21146525-1.47390122 2.91820758-1.30519124c.1949024-.09661664.1594014-.38890603-.05488852-.42626874Z"/><path fill="#2a506f" fill-rule="nonzero" d="m6.92128167 19.94154506-.17185564 1.0428177c1.71451195 2.93014823 4.83372065 4.95081615 8.4476322 5.11098792l.20401838-.63478093c-3.75341185-.09892773-6.96185451-2.33683864-8.47979494-5.51902469Z"/><text x="0px" y="0px" fill="#dfaf37" font-family="'ArialRoundedMTBold','Arial Rounded MT Bold',sans-serif" font-size="14.667px" transform="translate(109.84825823 22.5857595) scale(1.17269)">ADS-B F</text><text x="0px" y="0px" fill="#dfaf37" font-family="'ArialRoundedMTBold','Arial Rounded MT Bold',sans-serif" font-size="14.667px" transform="translate(178.9818518 22.5857595) scale(1.17269)">light T</text><text x="0px" y="0px" fill="#dfaf37" font-family="'ArialRoundedMTBold','Arial Rounded MT Bold',sans-serif" font-size="14.667px" transform="translate(229.92585078 22.5857595) scale(1.17269)">r<tspan x="6.059px 14.774px 22.932px 30.781px 39.496px" y="0px 0px 0px 0px 0px">acker</tspan></text></svg>