<svg xmlns="http://www.w3.org/2000/svg" xml:space="preserve" fill-rule="evenodd" stroke-linejoin="round" stroke-miterlimit="2" clip-rule="evenodd" viewBox="0 0 494 494"><path fill="#dfaf37" fill-rule="nonzero" d="M246.528 0C110.374 0 0 110.375 0 246.528c0 136.154 110.375 246.528 246.528 246.528 136.154 0 246.529-110.374 246.529-246.528C493.057 110.375 382.683 0 246.528 0Zm155.678 402.207c-20.228 20.228-43.775 36.105-69.989 47.193-27.125 11.473-55.956 17.291-85.689 17.291-29.733 0-58.563-5.818-85.688-17.291-26.214-11.088-49.762-26.966-69.99-47.193-20.228-20.229-36.106-43.775-47.193-69.989-11.473-27.126-17.291-55.956-17.291-85.689 0-29.733 5.817-58.563 17.291-85.688 11.087-26.214 26.966-49.762 47.193-69.989 20.228-20.228 43.776-36.106 69.99-47.193 27.125-11.474 55.956-17.291 85.688-17.291 29.733 0 58.563 5.817 85.689 17.291 26.214 11.087 49.762 26.966 69.989 47.193 20.228 20.228 36.106 43.775 47.194 69.989 11.473 27.125 17.291 55.955 17.291 85.688 0 29.733-5.817 58.563-17.291 85.689-11.087 26.214-26.966 49.76-47.194 69.989Z"/><path fill="#2a506f" fill-rule="nonzero" d="m393.501 302.831 10.837-50.5c.601-3.463-3.549-5.79-6.081-3.354-.019.019-.09.089-.109.107l-26.075 32.621-26.348-23.097c-.498-.454-.745-1.12-.663-1.789l1.604-13.026c.129-1.079-1.177-1.925-1.918-1.188l-.032.032-6.388 9.477c-1.115 1.654-2.544 3.073-4.206 4.175l-9.423 6.251c-.006.005-.011.011-.017.017-.741.736.064 2.08 1.145 1.957l13.216-1.523c.667-.076 1.331.174 1.78.674l22.876 26.836-32.88 25.527c-.019.02-.037.037-.055.057-2.452 2.519-.183 6.715 3.283 6.135l50.762-10.567 16.598 17.239c2.762 2.777 6.888 3.195 9.667.434 2.778-2.763 2.384-6.892-.378-9.67l-17.195-16.825Zm-105.879 59.101 7.185-21.393c1.12-3.52-.329-7.152-3.849-8.272-3.521-1.119-6.801 1.009-7.921 4.528l-6.577 21.711-46.954 12.939c-3.157 1.007-3.296 5.49-.155 6.547.023.008.114.037.137.045l38.642 7.593-7.836 32.098c-.163.614-.612 1.11-1.207 1.333l-11.593 4.335c-.959.362-1.097 1.823-.158 2.122.007.002.034.01.041.013l10.708 1.213c1.869.212 3.678.789 5.324 1.698l9.333 5.157c.007.002.014.005.021.007.938.299 1.711-.961 1.138-1.811l-7.032-10.389c-.355-.524-.435-1.188-.213-1.782l12.476-30.823 35.675 16.375c.023.007.047.014.07.021 3.174.953 5.696-2.773 3.7-5.419l-30.955-37.846ZM134.747 259.55c-.025-.004-.121-.02-.146-.023l-40.227-1.705 2.961-33.651c.069-.646.447-1.217 1.013-1.534l11.047-6.172c.913-.515.827-2.012-.168-2.169-.007-.001-.036-.006-.043-.007l-9.932.387c14.657-67.836 75.119-118.824 147.276-118.824 38.436 0 75.635 14.907 103.475 41.171l-47.123 43.016c-15.639-13.262-35.545-20.67-56.353-20.67-48.061 0-87.162 39.101-87.162 87.161 0 48.062 39.101 87.162 87.162 87.162 2.761 0 5-2.238 5-5s-2.239-5-5-5c-42.547 0-77.162-34.615-77.162-77.162 0-42.547 34.615-77.161 77.162-77.161 17.983 0 35.205 6.255 48.896 17.477l-39.615 36.162c-2.874-1.135-6.003-1.766-9.281-1.766-13.966 0-25.288 11.322-25.288 25.288 0 13.967 11.322 25.288 25.288 25.288 13.967 0 25.289-11.321 25.289-25.288 0-3.442-.69-6.723-1.937-9.714L382.12 134.358c3.999-3.649 4.284-9.907.634-13.905-3.649-3.998-9.907-4.283-13.905-.634l-11.439 10.442c-29.745-28.322-69.646-44.409-110.882-44.409-76.991 0-141.492 54.437-157.075 126.837l-7.151-2.636c-.007-.001-.015-.002-.022-.003-.995-.157-1.581 1.234-.871 2.005l8.712 9.413c.44.477.622 1.135.49 1.77l-7.847 33.08-38.585-11.041c-.025-.004-.05-.008-.075-.011-3.355-.473-5.329 3.683-2.903 6.048l37.133 33.471-3.958 22.729c-.588 3.731 1.438 7.179 5.168 7.767 3.73.588 6.718-2.069 7.307-5.801l3.294-22.959 45.457-20.331c3.036-1.505 2.483-6.058-.855-6.64Z"/><path fill="#2a506f" fill-rule="nonzero" d="m107.813 310.63-2.677 16.244c26.707 45.643 75.295 77.119 131.589 79.614l3.178-9.888c-58.467-1.541-108.445-36.401-132.09-85.97Z"/></svg>